<?xml version="1.0" encoding="UTF-8" standalone="no"?>
<!DOCTYPE svg PUBLIC "-//W3C//DTD SVG 1.1//EN"
 "http://www.w3.org/Graphics/SVG/1.1/DTD/svg11.dtd">
<!-- Generated by graphviz version 16.0.0 (20260814.1018)
 -->
<!-- Title: kyc&#45;review Pages: 1 -->
<svg width="2100pt" height="363pt"
 viewBox="0.00 0.00 2100.00 363.00" xmlns="http://www.w3.org/2000/svg" xmlns:xlink="http://www.w3.org/1999/xlink">
<g id="graph0" class="graph" transform="scale(0.863846 0.863846) rotate(0) translate(50.4 369.62)">
<title>kyc&#45;review</title>
<text xml:space="preserve" text-anchor="start" x="8" y="-303.87" font-family="Helvetica,sans-Serif" font-weight="bold" font-size="13.00" fill="#0a0a0a">Akkuea &#45; KYC Review Flow (existing platform build)</text>
<text xml:space="preserve" text-anchor="start" x="54.5" y="-294.67" font-family="Helvetica,sans-Serif" font-size="9.00" fill="#737373">The &#39;admin as oracle&#39; pattern &#45; no third&#45;party KYC provider</text>
<g id="clust1" class="cluster">
<title>cluster_review</title>
<path fill="none" stroke="#b388ff" stroke-width="2" stroke-dasharray="5,2" d="M20,-143.86C20,-143.86 442.24,-143.86 442.24,-143.86 448.24,-143.86 454.24,-149.86 454.24,-155.86 454.24,-155.86 454.24,-235.86 454.24,-235.86 454.24,-241.86 448.24,-247.86 442.24,-247.86 442.24,-247.86 20,-247.86 20,-247.86 14,-247.86 8,-241.86 8,-235.86 8,-235.86 8,-155.86 8,-155.86 8,-149.86 14,-143.86 20,-143.86"/>
<text xml:space="preserve" text-anchor="start" x="44.88" y="-234.41" font-family="Helvetica,sans-Serif" font-weight="bold" font-size="11.00" fill="#b388ff">Manual Review</text>
<text xml:space="preserve" text-anchor="start" x="16" y="-225.31" font-family="Helvetica,sans-Serif" font-size="9.00" fill="#737373">No automated identity verification</text>
</g>
<!-- investor -->
<g id="node1" class="node">
<title>investor</title>
<path fill="#eaf4fb" stroke="#0284c7" stroke-width="2" d="M1521.58,-214.22C1521.58,-214.22 1382.65,-214.22 1382.65,-214.22 1376.65,-214.22 1370.65,-208.22 1370.65,-202.22 1370.65,-202.22 1370.65,-187.5 1370.65,-187.5 1370.65,-181.5 1376.65,-175.5 1382.65,-175.5 1382.65,-175.5 1521.58,-175.5 1521.58,-175.5 1527.58,-175.5 1533.58,-181.5 1533.58,-187.5 1533.58,-187.5 1533.58,-202.22 1533.58,-202.22 1533.58,-208.22 1527.58,-214.22 1521.58,-214.22"/>
<text xml:space="preserve" text-anchor="start" x="1430.74" y="-195.41" font-family="Helvetica,sans-Serif" font-weight="bold" font-size="11.00" fill="#0a0a0a">Investor</text>
<text xml:space="preserve" text-anchor="start" x="1386.49" y="-186.31" font-family="Helvetica,sans-Serif" font-size="9.00" fill="#737373">Uploads compliance documents</text>
</g>
<!-- db -->
<g id="node3" class="node">
<title>db</title>
<path fill="#fff4e5" stroke="#f5a623" stroke-width="2" d="M1975.01,-216.64C1975.01,-219.31 1937.99,-221.48 1892.42,-221.48 1846.85,-221.48 1809.83,-219.31 1809.83,-216.64 1809.83,-216.64 1809.83,-173.08 1809.83,-173.08 1809.83,-170.41 1846.85,-168.24 1892.42,-168.24 1937.99,-168.24 1975.01,-170.41 1975.01,-173.08 1975.01,-173.08 1975.01,-216.64 1975.01,-216.64"/>
<path fill="none" stroke="#f5a623" stroke-width="2" d="M1975.01,-216.64C1975.01,-213.97 1937.99,-211.8 1892.42,-211.8 1846.85,-211.8 1809.83,-213.97 1809.83,-216.64"/>
<text xml:space="preserve" text-anchor="start" x="1860.55" y="-195.41" font-family="Helvetica,sans-Serif" font-weight="bold" font-size="11.00" fill="#0a0a0a">PostgreSQL</text>
<text xml:space="preserve" text-anchor="start" x="1825.67" y="-186.31" font-family="Helvetica,sans-Serif" font-size="9.00" fill="#737373">kycDocuments + users.kycStatus</text>
</g>
<!-- investor&#45;&gt;db -->
<g id="edge1" class="edge">
<title>investor&#45;&gt;db</title>
<path fill="none" stroke="#0284c7" stroke-width="2" d="M1534.42,-194.86C1534.42,-194.86 1797.5,-194.86 1797.5,-194.86"/>
<polygon fill="#0284c7" stroke="#0284c7" stroke-width="2" points="1797.5,-197.84 1806,-194.86 1797.5,-191.89 1797.5,-197.84"/>
<text xml:space="preserve" text-anchor="middle" x="1671.7" y="-196.81" font-family="Helvetica,sans-Serif" font-size="9.00" fill="#0284c7">POST /kyc/upload &#45;&gt; kycDocuments.status = &#39;pending&#39;</text>
</g>
<!-- admin -->
<g id="node2" class="node">
<title>admin</title>
<path fill="#f1eafb" stroke="#b388ff" stroke-width="2" d="M2318.19,-163.72C2318.19,-163.72 2126.76,-163.72 2126.76,-163.72 2120.76,-163.72 2114.76,-157.72 2114.76,-151.72 2114.76,-151.72 2114.76,-128 2114.76,-128 2114.76,-122 2120.76,-116 2126.76,-116 2126.76,-116 2318.19,-116 2318.19,-116 2324.19,-116 2330.19,-122 2330.19,-128 2330.19,-128 2330.19,-151.72 2330.19,-151.72 2330.19,-157.72 2324.19,-163.72 2318.19,-163.72"/>
<text xml:space="preserve" text-anchor="start" x="2181.22" y="-144.91" font-family="Helvetica,sans-Serif" font-weight="bold" font-size="11.00" fill="#0a0a0a">Platform Admin</text>
<text xml:space="preserve" text-anchor="start" x="2161.35" y="-135.81" font-family="Helvetica,sans-Serif" font-size="9.00" fill="#737373">Reviews documents manually</text>
<text xml:space="preserve" text-anchor="start" x="2130.6" y="-126.81" font-family="Helvetica,sans-Serif" font-size="9.00" fill="#737373">The admin IS the compliance decision&#45;maker</text>
</g>
<!-- review -->
<g id="node4" class="node">
<title>review</title>
<path fill="#f1eafb" stroke="#b388ff" stroke-width="1.6" d="M160.18,-205.72C160.18,-205.72 34,-205.72 34,-205.72 28,-205.72 22,-199.72 22,-193.72 22,-193.72 22,-170 22,-170 22,-164 28,-158 34,-158 34,-158 160.18,-158 160.18,-158 166.18,-158 172.18,-164 172.18,-170 172.18,-170 172.18,-193.72 172.18,-193.72 172.18,-199.72 166.18,-205.72 160.18,-205.72"/>
<text xml:space="preserve" text-anchor="start" x="49.84" y="-186.91" font-family="Helvetica,sans-Serif" font-weight="bold" font-size="11.00" fill="#0a0a0a">Review Document</text>
<text xml:space="preserve" text-anchor="start" x="37.84" y="-177.81" font-family="Helvetica,sans-Serif" font-size="9.00" fill="#737373">POST /kyc/verify/:documentId</text>
<text xml:space="preserve" text-anchor="start" x="63.34" y="-168.81" font-family="Helvetica,sans-Serif" font-size="9.00" fill="#737373">{ verified, notes }</text>
</g>
<!-- admin&#45;&gt;review -->
<g id="edge3" class="edge">
<title>admin&#45;&gt;review</title>
<path fill="none" stroke="#a3a3a3" stroke-width="1.4" d="M2113.79,-130C1680.17,-130 97.19,-130 97.19,-130 97.19,-130 97.19,-146.83 97.19,-146.83"/>
<polygon fill="#a3a3a3" stroke="#a3a3a3" stroke-width="1.4" points="94.22,-146.83 97.19,-155.33 100.17,-146.83 94.22,-146.83"/>
</g>
<!-- db&#45;&gt;admin -->
<g id="edge2" class="edge">
<title>db&#45;&gt;admin</title>
<path fill="none" stroke="#a3a3a3" stroke-width="1.4" stroke-dasharray="5,2" d="M1892.19,-167.35C1892.19,-155.36 1892.19,-144 1892.19,-144 1892.19,-144 2103.25,-144 2103.25,-144"/>
<polygon fill="#a3a3a3" stroke="#a3a3a3" stroke-width="1.4" points="2103.25,-146.98 2111.75,-144 2103.25,-141.03 2103.25,-146.98"/>
<text xml:space="preserve" text-anchor="middle" x="2044.88" y="-185.81" font-family="Helvetica,sans-Serif" font-size="9.00" fill="#737373">Pending documents</text>
</g>
<!-- recompute -->
<g id="node5" class="node">
<title>recompute</title>
<path fill="#f1eafb" stroke="#b388ff" stroke-width="1.6" d="M428.24,-206.22C428.24,-206.22 284.81,-206.22 284.81,-206.22 278.81,-206.22 272.81,-200.22 272.81,-194.22 272.81,-194.22 272.81,-179.5 272.81,-179.5 272.81,-173.5 278.81,-167.5 284.81,-167.5 284.81,-167.5 428.24,-167.5 428.24,-167.5 434.24,-167.5 440.24,-173.5 440.24,-179.5 440.24,-179.5 440.24,-194.22 440.24,-194.22 440.24,-200.22 434.24,-206.22 428.24,-206.22"/>
<text xml:space="preserve" text-anchor="start" x="308.15" y="-187.41" font-family="Helvetica,sans-Serif" font-weight="bold" font-size="11.00" fill="#0a0a0a">Recompute Status</text>
<text xml:space="preserve" text-anchor="start" x="288.65" y="-178.31" font-family="Helvetica,sans-Serif" font-size="9.00" fill="#737373">Re&#45;evaluate ALL user documents</text>
</g>
<!-- review&#45;&gt;recompute -->
<g id="edge4" class="edge">
<title>review&#45;&gt;recompute</title>
<path fill="none" stroke="#a3a3a3" stroke-width="1.4" d="M172.83,-192.98C172.83,-192.98 261.43,-192.98 261.43,-192.98"/>
<polygon fill="#a3a3a3" stroke="#a3a3a3" stroke-width="1.4" points="261.43,-195.96 269.93,-192.98 261.43,-190.01 261.43,-195.96"/>
</g>
<!-- note_gap -->
<g id="node9" class="node">
<title>note_gap</title>
<polygon fill="#fff3e5" stroke="#ffab40" stroke-width="1.6" points="475.86,-45.72 231.18,-45.72 231.18,0 481.86,0 481.86,-39.72 475.86,-45.72"/>
<polyline fill="none" stroke="#ffab40" stroke-width="1.6" points="475.86,-45.72 475.86,-39.72"/>
<polyline fill="none" stroke="#ffab40" stroke-width="1.6" points="481.86,-39.72 475.86,-39.72"/>
<text xml:space="preserve" text-anchor="start" x="332.15" y="-28.81" font-family="Helvetica,sans-Serif" font-weight="bold" font-size="9.00" fill="#0a0a0a">Known Gap</text>
<text xml:space="preserve" text-anchor="start" x="247.02" y="-19.81" font-family="Helvetica,sans-Serif" font-size="9.00" fill="#737373">POST /kyc/verify/:documentId has no auth middleware</text>
<text xml:space="preserve" text-anchor="start" x="283.02" y="-10.81" font-family="Helvetica,sans-Serif" font-size="9.00" fill="#737373">Must be protected before production</text>
</g>
<!-- review&#45;&gt;note_gap -->
<g id="edge10" class="edge">
<title>review&#45;&gt;note_gap</title>
<path fill="none" stroke="#a3a3a3" stroke-width="1.4" stroke-dasharray="1,5" d="M172.82,-180.24C212.19,-180.24 252.19,-180.24 252.19,-180.24 252.19,-180.24 252.19,-57.04 252.19,-57.04"/>
<polygon fill="#a3a3a3" stroke="#a3a3a3" stroke-width="1.4" points="255.17,-57.04 252.19,-48.54 249.22,-57.04 255.17,-57.04"/>
</g>
<!-- gate -->
<g id="node6" class="node">
<title>gate</title>
<polygon fill="#fff4e5" stroke="#f5a623" stroke-width="1.6" points="686.54,-229.58 540.86,-198.86 686.54,-168.14 832.22,-198.86 686.54,-229.58"/>
<text xml:space="preserve" text-anchor="start" x="629.54" y="-196.36" font-family="Helvetica,sans-Serif" font-weight="bold" font-size="10.00" fill="#0a0a0a">Any document rejected?</text>
</g>
<!-- recompute&#45;&gt;gate -->
<g id="edge5" class="edge">
<title>recompute&#45;&gt;gate</title>
<path fill="none" stroke="#a3a3a3" stroke-width="1.4" stroke-dasharray="5,2" d="M440.65,-187.18C440.65,-187.18 581.75,-187.18 581.75,-187.18"/>
<polygon fill="#a3a3a3" stroke="#a3a3a3" stroke-width="1.4" points="581.75,-190.16 590.25,-187.18 581.75,-184.21 581.75,-190.16"/>
</g>
<!-- approved -->
<g id="node7" class="node">
<title>approved</title>
<path fill="#e2f8ee" stroke="#0c9755" stroke-width="1.6" d="M1111.28,-289.22C1111.28,-289.22 989.6,-289.22 989.6,-289.22 983.6,-289.22 977.6,-283.22 977.6,-277.22 977.6,-277.22 977.6,-262.5 977.6,-262.5 977.6,-256.5 983.6,-250.5 989.6,-250.5 989.6,-250.5 1111.28,-250.5 1111.28,-250.5 1117.28,-250.5 1123.28,-256.5 1123.28,-262.5 1123.28,-262.5 1123.28,-277.22 1123.28,-277.22 1123.28,-283.22 1117.28,-289.22 1111.28,-289.22"/>
<text xml:space="preserve" text-anchor="start" x="993.44" y="-270.41" font-family="Helvetica,sans-Serif" font-weight="bold" font-size="11.00" fill="#0a0a0a">kycStatus = approved</text>
<text xml:space="preserve" text-anchor="start" x="996.81" y="-261.31" font-family="Helvetica,sans-Serif" font-size="9.00" fill="#737373">Every document approved</text>
</g>
<!-- gate&#45;&gt;approved -->
<g id="edge6" class="edge">
<title>gate&#45;&gt;approved</title>
<path fill="none" stroke="#0c9755" stroke-width="1.4" d="M709.56,-225.53C789.5,-225.53 1050.19,-225.53 1050.19,-225.53 1050.19,-225.53 1050.19,-239.15 1050.19,-239.15"/>
<polygon fill="#0c9755" stroke="#0c9755" stroke-width="1.4" points="1047.22,-239.15 1050.19,-247.65 1053.17,-239.15 1047.22,-239.15"/>
<text xml:space="preserve" text-anchor="middle" x="894.22" y="-263.81" font-family="Helvetica,sans-Serif" font-size="9.00" fill="#0c9755">no, all approved</text>
</g>
<!-- rejected -->
<g id="node8" class="node">
<title>rejected</title>
<path fill="#fbeaea" stroke="#ff4444" stroke-width="1.6" d="M1132.65,-210.22C1132.65,-210.22 968.22,-210.22 968.22,-210.22 962.22,-210.22 956.22,-204.22 956.22,-198.22 956.22,-198.22 956.22,-183.5 956.22,-183.5 956.22,-177.5 962.22,-171.5 968.22,-171.5 968.22,-171.5 1132.65,-171.5 1132.65,-171.5 1138.65,-171.5 1144.65,-177.5 1144.65,-183.5 1144.65,-183.5 1144.65,-198.22 1144.65,-198.22 1144.65,-204.22 1138.65,-210.22 1132.65,-210.22"/>
<text xml:space="preserve" text-anchor="start" x="997.19" y="-191.41" font-family="Helvetica,sans-Serif" font-weight="bold" font-size="11.00" fill="#0a0a0a">kycStatus = rejected</text>
<text xml:space="preserve" text-anchor="start" x="972.06" y="-182.31" font-family="Helvetica,sans-Serif" font-size="9.00" fill="#737373">Blocks approval, even if others passed</text>
</g>
<!-- gate&#45;&gt;rejected -->
<g id="edge7" class="edge">
<title>gate&#45;&gt;rejected</title>
<path fill="none" stroke="#ff4444" stroke-width="1.4" d="M797.7,-190.86C797.7,-190.86 944.99,-190.86 944.99,-190.86"/>
<polygon fill="#ff4444" stroke="#ff4444" stroke-width="1.4" points="944.99,-193.84 953.49,-190.86 944.99,-187.89 944.99,-193.84"/>
<text xml:space="preserve" text-anchor="middle" x="894.22" y="-196.81" font-family="Helvetica,sans-Serif" font-size="9.00" fill="#ff4444">yes</text>
</g>
<!-- approved&#45;&gt;investor -->
<g id="edge8" class="edge">
<title>approved&#45;&gt;investor</title>
<path fill="none" stroke="#0c9755" stroke-width="1.4" stroke-dasharray="5,2" d="M1123.66,-269.86C1239.54,-269.86 1452.19,-269.86 1452.19,-269.86 1452.19,-269.86 1452.19,-225.58 1452.19,-225.58"/>
<polygon fill="#0c9755" stroke="#0c9755" stroke-width="1.4" points="1455.17,-225.58 1452.19,-217.08 1449.22,-225.58 1455.17,-225.58"/>
<text xml:space="preserve" text-anchor="middle" x="1257.65" y="-261.81" font-family="Helvetica,sans-Serif" font-size="9.00" fill="#737373">Notification: verification approved</text>
</g>
<!-- rejected&#45;&gt;investor -->
<g id="edge9" class="edge">
<title>rejected&#45;&gt;investor</title>
<path fill="none" stroke="#ff4444" stroke-width="1.4" stroke-dasharray="5,2" d="M1145.37,-192.86C1145.37,-192.86 1359.11,-192.86 1359.11,-192.86"/>
<polygon fill="#ff4444" stroke="#ff4444" stroke-width="1.4" points="1359.11,-195.84 1367.61,-192.86 1359.11,-189.89 1359.11,-195.84"/>
<text xml:space="preserve" text-anchor="middle" x="1257.65" y="-194.81" font-family="Helvetica,sans-Serif" font-size="9.00" fill="#737373">Notification: verification rejected + reason</text>
</g>
</g>
</svg>
