<?xml version="1.0" encoding="UTF-8" standalone="no"?>
<!DOCTYPE svg PUBLIC "-//W3C//DTD SVG 1.1//EN"
 "http://www.w3.org/Graphics/SVG/1.1/DTD/svg11.dtd">
<!-- Generated by graphviz version 16.0.0 (20260814.1018)
 -->
<!-- Title: deployment&#45;topology Pages: 1 -->
<svg width="1874pt" height="1131pt"
 viewBox="0.00 0.00 1874.00 1131.00" xmlns="http://www.w3.org/2000/svg" xmlns:xlink="http://www.w3.org/1999/xlink">
<g id="graph0" class="graph" transform="scale(2.08333 2.08333) rotate(0) translate(50.4 492.4)">
<title>deployment&#45;topology</title>
<text xml:space="preserve" text-anchor="start" x="32.38" y="-426.65" font-family="Helvetica,sans-Serif" font-weight="bold" font-size="13.00" fill="#0a0a0a">Akkuea &#45; Deployment Topology</text>
<text xml:space="preserve" text-anchor="start" x="8" y="-417.45" font-family="Helvetica,sans-Serif" font-size="9.00" fill="#737373">Development (Stellar Testnet) vs Production (Stellar Mainnet)</text>
<g id="clust1" class="cluster">
<title>cluster_dev</title>
<path fill="none" stroke="#0284c7" stroke-width="2.5" d="M20,-8C20,-8 761.17,-8 761.17,-8 767.17,-8 773.17,-14 773.17,-20 773.17,-20 773.17,-193 773.17,-193 773.17,-199 767.17,-205 761.17,-205 761.17,-205 20,-205 20,-205 14,-205 8,-199 8,-193 8,-193 8,-20 8,-20 8,-14 14,-8 20,-8"/>
<text xml:space="preserve" text-anchor="start" x="16" y="-190.6" font-family="Helvetica,sans-Serif" font-weight="bold" font-size="12.00" fill="#0284c7">Development</text>
<text xml:space="preserve" text-anchor="start" x="23.88" y="-181.45" font-family="Helvetica,sans-Serif" font-size="9.00" fill="#737373">Local machine</text>
</g>
<g id="clust2" class="cluster">
<title>cluster_prod</title>
<path fill="none" stroke="#ff3e00" stroke-width="2.5" d="M24.5,-213C24.5,-213 778.79,-213 778.79,-213 784.79,-213 790.79,-219 790.79,-225 790.79,-225 790.79,-392 790.79,-392 790.79,-398 784.79,-404 778.79,-404 778.79,-404 24.5,-404 24.5,-404 18.5,-404 12.5,-398 12.5,-392 12.5,-392 12.5,-225 12.5,-225 12.5,-219 18.5,-213 24.5,-213"/>
<text xml:space="preserve" text-anchor="start" x="20.5" y="-389.6" font-family="Helvetica,sans-Serif" font-weight="bold" font-size="12.00" fill="#ff3e00">Production</text>
</g>
<!-- dev_webapp -->
<g id="node1" class="node">
<title>dev_webapp</title>
<path fill="#eaf4fb" stroke="#0284c7" stroke-width="1.6" d="M125.93,-82.36C125.93,-82.36 49.25,-82.36 49.25,-82.36 43.25,-82.36 37.25,-76.36 37.25,-70.36 37.25,-70.36 37.25,-55.64 37.25,-55.64 37.25,-49.64 43.25,-43.64 49.25,-43.64 49.25,-43.64 125.93,-43.64 125.93,-43.64 131.93,-43.64 137.93,-49.64 137.93,-55.64 137.93,-55.64 137.93,-70.36 137.93,-70.36 137.93,-76.36 131.93,-82.36 125.93,-82.36"/>
<text xml:space="preserve" text-anchor="start" x="53.09" y="-63.55" font-family="Helvetica,sans-Serif" font-weight="bold" font-size="11.00" fill="#0a0a0a">apps/webapp</text>
<text xml:space="preserve" text-anchor="start" x="57.59" y="-54.45" font-family="Helvetica,sans-Serif" font-size="9.00" fill="#737373">localhost:3000</text>
</g>
<!-- dev_api -->
<g id="node3" class="node">
<title>dev_api</title>
<path fill="#ebf9f3" stroke="#00c969" stroke-width="2" d="M311.86,-155.36C311.86,-155.36 244.18,-155.36 244.18,-155.36 238.18,-155.36 232.18,-149.36 232.18,-143.36 232.18,-143.36 232.18,-128.64 232.18,-128.64 232.18,-122.64 238.18,-116.64 244.18,-116.64 244.18,-116.64 311.86,-116.64 311.86,-116.64 317.86,-116.64 323.86,-122.64 323.86,-128.64 323.86,-128.64 323.86,-143.36 323.86,-143.36 323.86,-149.36 317.86,-155.36 311.86,-155.36"/>
<text xml:space="preserve" text-anchor="start" x="255.9" y="-136.55" font-family="Helvetica,sans-Serif" font-weight="bold" font-size="11.00" fill="#0a0a0a">apps/api</text>
<text xml:space="preserve" text-anchor="start" x="248.02" y="-127.45" font-family="Helvetica,sans-Serif" font-size="9.00" fill="#737373">localhost:3001</text>
</g>
<!-- dev_webapp&#45;&gt;dev_api -->
<g id="edge1" class="edge">
<title>dev_webapp&#45;&gt;dev_api</title>
<path fill="none" stroke="#a3a3a3" stroke-width="1.4" d="M148.27,-86.12C171.78,-95.23 198.61,-105.62 221.68,-114.56"/>
<polygon fill="#a3a3a3" stroke="#a3a3a3" stroke-width="1.4" points="149.57,-83.43 140.57,-83.14 147.42,-88.98 149.57,-83.43"/>
<polygon fill="#a3a3a3" stroke="#a3a3a3" stroke-width="1.4" points="220.33,-117.23 229.33,-117.53 222.48,-111.68 220.33,-117.23"/>
</g>
<!-- testnet -->
<g id="node5" class="node">
<title>testnet</title>
<path fill="#fbeeea" stroke="#ff3e00" stroke-width="2" d="M743.17,-64.36C743.17,-64.36 596.74,-64.36 596.74,-64.36 590.74,-64.36 584.74,-58.36 584.74,-52.36 584.74,-52.36 584.74,-37.64 584.74,-37.64 584.74,-31.64 590.74,-25.64 596.74,-25.64 596.74,-25.64 743.17,-25.64 743.17,-25.64 749.17,-25.64 755.17,-31.64 755.17,-37.64 755.17,-37.64 755.17,-52.36 755.17,-52.36 755.17,-58.36 749.17,-64.36 743.17,-64.36"/>
<text xml:space="preserve" text-anchor="start" x="632.45" y="-45.55" font-family="Helvetica,sans-Serif" font-weight="bold" font-size="11.00" fill="#0a0a0a">Stellar Testnet</text>
<text xml:space="preserve" text-anchor="start" x="600.58" y="-36.45" font-family="Helvetica,sans-Serif" font-size="9.00" fill="#737373">defi&#45;rwa + game&#45;* + pilot contracts</text>
</g>
<!-- dev_webapp&#45;&gt;testnet -->
<g id="edge5" class="edge">
<title>dev_webapp&#45;&gt;testnet</title>
<path fill="none" stroke="#a3a3a3" stroke-width="1.4" stroke-dasharray="5,2" d="M138.57,-61.45C235.18,-58.45 448.98,-51.82 573.62,-47.96"/>
<polygon fill="#a3a3a3" stroke="#a3a3a3" stroke-width="1.4" points="573.4,-50.94 581.8,-47.7 573.21,-44.99 573.4,-50.94"/>
<text xml:space="preserve" text-anchor="middle" x="278.02" y="-61.22" font-family="Helvetica,sans-Serif" font-size="9.00" fill="#737373">wallet&#45;signed</text>
</g>
<!-- dev_land -->
<g id="node2" class="node">
<title>dev_land</title>
<path fill="#eaf4fb" stroke="#0284c7" stroke-width="1.6" d="M137.18,-158C137.18,-158 38,-158 38,-158 32,-158 26,-152 26,-146 26,-146 26,-134 26,-134 26,-128 32,-122 38,-122 38,-122 137.18,-122 137.18,-122 143.18,-122 149.18,-128 149.18,-134 149.18,-134 149.18,-146 149.18,-146 149.18,-152 143.18,-158 137.18,-158"/>
<text xml:space="preserve" text-anchor="start" x="41.84" y="-137.3" font-family="Helvetica,sans-Serif" font-weight="bold" font-size="11.00" fill="#0a0a0a">apps/akkuea&#45;land</text>
</g>
<!-- dev_land&#45;&gt;dev_api -->
<g id="edge2" class="edge">
<title>dev_land&#45;&gt;dev_api</title>
<path fill="none" stroke="#a3a3a3" stroke-width="1.4" d="M160.21,-138.48C180.26,-138.05 201.77,-137.6 220.79,-137.19"/>
<polygon fill="#a3a3a3" stroke="#a3a3a3" stroke-width="1.4" points="160.32,-135.5 151.89,-138.66 160.45,-141.45 160.32,-135.5"/>
<polygon fill="#a3a3a3" stroke="#a3a3a3" stroke-width="1.4" points="220.82,-140.17 229.25,-137.01 220.69,-134.22 220.82,-140.17"/>
</g>
<!-- dev_db -->
<g id="node4" class="node">
<title>dev_db</title>
<path fill="#fff4e5" stroke="#f5a623" stroke-width="1.6" d="M739.04,-152.78C739.04,-155.45 708.07,-157.62 669.95,-157.62 631.83,-157.62 600.86,-155.45 600.86,-152.78 600.86,-152.78 600.86,-109.22 600.86,-109.22 600.86,-106.55 631.83,-104.38 669.95,-104.38 708.07,-104.38 739.04,-106.55 739.04,-109.22 739.04,-109.22 739.04,-152.78 739.04,-152.78"/>
<path fill="none" stroke="#f5a623" stroke-width="1.6" d="M739.04,-152.78C739.04,-150.11 708.07,-147.94 669.95,-147.94 631.83,-147.94 600.86,-150.11 600.86,-152.78"/>
<text xml:space="preserve" text-anchor="start" x="616.7" y="-131.55" font-family="Helvetica,sans-Serif" font-weight="bold" font-size="11.00" fill="#0a0a0a">PostgreSQL + Redis</text>
<text xml:space="preserve" text-anchor="start" x="619.33" y="-122.45" font-family="Helvetica,sans-Serif" font-size="9.00" fill="#737373">docker&#45;compose.dev.yml</text>
</g>
<!-- dev_api&#45;&gt;dev_db -->
<g id="edge3" class="edge">
<title>dev_api&#45;&gt;dev_db</title>
<path fill="none" stroke="#a3a3a3" stroke-width="1.4" d="M334.88,-135.28C401.69,-134.43 513.99,-132.99 589.74,-132.02"/>
<polygon fill="#a3a3a3" stroke="#a3a3a3" stroke-width="1.4" points="335.09,-132.31 326.63,-135.39 335.17,-138.26 335.09,-132.31"/>
<polygon fill="#a3a3a3" stroke="#a3a3a3" stroke-width="1.4" points="589.59,-134.99 598.06,-131.91 589.52,-129.04 589.59,-134.99"/>
</g>
<!-- dev_api&#45;&gt;testnet -->
<g id="edge4" class="edge">
<title>dev_api&#45;&gt;testnet</title>
<path fill="none" stroke="#a3a3a3" stroke-width="1.4" d="M324.51,-125.38C385.39,-111.18 494.87,-85.63 574.09,-67.14"/>
<polygon fill="#a3a3a3" stroke="#a3a3a3" stroke-width="1.4" points="574.41,-70.12 582.01,-65.29 573.06,-64.32 574.41,-70.12"/>
<text xml:space="preserve" text-anchor="middle" x="457.49" y="-113.54" font-family="Helvetica,sans-Serif" font-size="9.00" fill="#737373">admin&#45;signed</text>
</g>
<!-- mainnet -->
<g id="node9" class="node">
<title>mainnet</title>
<path fill="#fbeeea" stroke="#ff3e00" stroke-width="2.5" d="M760.79,-363.36C760.79,-363.36 579.11,-363.36 579.11,-363.36 573.11,-363.36 567.11,-357.36 567.11,-351.36 567.11,-351.36 567.11,-336.64 567.11,-336.64 567.11,-330.64 573.11,-324.64 579.11,-324.64 579.11,-324.64 760.79,-324.64 760.79,-324.64 766.79,-324.64 772.79,-330.64 772.79,-336.64 772.79,-336.64 772.79,-351.36 772.79,-351.36 772.79,-357.36 766.79,-363.36 760.79,-363.36"/>
<text xml:space="preserve" text-anchor="start" x="630.95" y="-344.55" font-family="Helvetica,sans-Serif" font-weight="bold" font-size="11.00" fill="#0a0a0a">Stellar Mainnet</text>
<text xml:space="preserve" text-anchor="start" x="582.95" y="-335.45" font-family="Helvetica,sans-Serif" font-size="9.00" fill="#737373">defi&#45;rwa + game&#45;* deployed independently</text>
</g>
<!-- testnet&#45;&gt;mainnet -->
<g id="edge10" class="edge">
<title>testnet&#45;&gt;mainnet</title>
<path fill="none" stroke="#ffab40" stroke-width="2" stroke-dasharray="5,2" d="M616.42,-65.3C591.43,-74.78 567.11,-84 567.11,-84 567.11,-84 409.27,-188.75 409.27,-188.75 409.27,-188.75 409.27,-199.25 409.27,-199.25 409.27,-199.25 567.11,-305 567.11,-305 567.11,-305 584.63,-311.64 605.2,-319.44"/>
<polygon fill="#ffab40" stroke="#ffab40" stroke-width="2" points="603.99,-322.17 612.99,-322.4 606.1,-316.6 603.99,-322.17"/>
<text xml:space="preserve" text-anchor="middle" x="457.49" y="-190.7" font-family="Helvetica,sans-Serif" font-size="9.00" fill="#ffab40">verified integrations promote to mainnet</text>
</g>
<!-- prod_fe -->
<g id="node6" class="node">
<title>prod_fe</title>
<path fill="#eaf4fb" stroke="#0284c7" stroke-width="2" d="M132.68,-318.36C132.68,-318.36 42.5,-318.36 42.5,-318.36 36.5,-318.36 30.5,-312.36 30.5,-306.36 30.5,-306.36 30.5,-291.64 30.5,-291.64 30.5,-285.64 36.5,-279.64 42.5,-279.64 42.5,-279.64 132.68,-279.64 132.68,-279.64 138.68,-279.64 144.68,-285.64 144.68,-291.64 144.68,-291.64 144.68,-306.36 144.68,-306.36 144.68,-312.36 138.68,-318.36 132.68,-318.36"/>
<text xml:space="preserve" text-anchor="start" x="60.59" y="-299.55" font-family="Helvetica,sans-Serif" font-weight="bold" font-size="11.00" fill="#0a0a0a">Frontends</text>
<text xml:space="preserve" text-anchor="start" x="46.34" y="-290.45" font-family="Helvetica,sans-Serif" font-size="9.00" fill="#737373">Static / edge hosting</text>
</g>
<!-- prod_api -->
<g id="node7" class="node">
<title>prod_api</title>
<path fill="#ebf9f3" stroke="#00c969" stroke-width="2" d="M335.86,-273.36C335.86,-273.36 220.18,-273.36 220.18,-273.36 214.18,-273.36 208.18,-267.36 208.18,-261.36 208.18,-261.36 208.18,-246.64 208.18,-246.64 208.18,-240.64 214.18,-234.64 220.18,-234.64 220.18,-234.64 335.86,-234.64 335.86,-234.64 341.86,-234.64 347.86,-240.64 347.86,-246.64 347.86,-246.64 347.86,-261.36 347.86,-261.36 347.86,-267.36 341.86,-273.36 335.86,-273.36"/>
<text xml:space="preserve" text-anchor="start" x="268.65" y="-254.55" font-family="Helvetica,sans-Serif" font-weight="bold" font-size="11.00" fill="#0a0a0a">API</text>
<text xml:space="preserve" text-anchor="start" x="224.02" y="-245.45" font-family="Helvetica,sans-Serif" font-size="9.00" fill="#737373">Load&#45;balanced Elysia/Bun</text>
</g>
<!-- prod_fe&#45;&gt;prod_api -->
<g id="edge6" class="edge">
<title>prod_fe&#45;&gt;prod_api</title>
<path fill="none" stroke="#a3a3a3" stroke-width="2" d="M156.78,-282.72C169.59,-279.66 183.1,-276.43 196.25,-273.29"/>
<polygon fill="#a3a3a3" stroke="#a3a3a3" stroke-width="2" points="156.16,-279.81 148.58,-284.67 157.54,-285.59 156.16,-279.81"/>
<polygon fill="#a3a3a3" stroke="#a3a3a3" stroke-width="2" points="196.67,-276.25 204.24,-271.38 195.29,-270.46 196.67,-276.25"/>
</g>
<!-- prod_fe&#45;&gt;mainnet -->
<g id="edge9" class="edge">
<title>prod_fe&#45;&gt;mainnet</title>
<path fill="none" stroke="#a3a3a3" stroke-width="2" stroke-dasharray="5,2" d="M145.54,-305.72C229.55,-315.63 376.86,-333 376.86,-333 376.86,-333 472.65,-336.61 554.52,-339.69"/>
<polygon fill="#a3a3a3" stroke="#a3a3a3" stroke-width="2" points="554.34,-342.66 562.95,-340.01 554.56,-336.72 554.34,-342.66"/>
<text xml:space="preserve" text-anchor="middle" x="278.02" y="-331.41" font-family="Helvetica,sans-Serif" font-size="9.00" fill="#737373">wallet&#45;signed</text>
</g>
<!-- prod_db -->
<g id="node8" class="node">
<title>prod_db</title>
<path fill="#fff4e5" stroke="#f5a623" stroke-width="2" d="M742.79,-279.78C742.79,-282.45 710.14,-284.62 669.95,-284.62 629.76,-284.62 597.11,-282.45 597.11,-279.78 597.11,-279.78 597.11,-236.22 597.11,-236.22 597.11,-233.55 629.76,-231.38 669.95,-231.38 710.14,-231.38 742.79,-233.55 742.79,-236.22 742.79,-236.22 742.79,-279.78 742.79,-279.78"/>
<path fill="none" stroke="#f5a623" stroke-width="2" d="M742.79,-279.78C742.79,-277.11 710.14,-274.94 669.95,-274.94 629.76,-274.94 597.11,-277.11 597.11,-279.78"/>
<text xml:space="preserve" text-anchor="start" x="612.95" y="-258.55" font-family="Helvetica,sans-Serif" font-weight="bold" font-size="11.00" fill="#0a0a0a">Managed PostgreSQL</text>
<text xml:space="preserve" text-anchor="start" x="633.58" y="-249.45" font-family="Helvetica,sans-Serif" font-size="9.00" fill="#737373">+ Redis (optional)</text>
</g>
<!-- prod_api&#45;&gt;prod_db -->
<g id="edge7" class="edge">
<title>prod_api&#45;&gt;prod_db</title>
<path fill="none" stroke="#a3a3a3" stroke-width="2" d="M360.07,-254.83C425.87,-255.51 518.33,-256.45 584.92,-257.14"/>
<polygon fill="#a3a3a3" stroke="#a3a3a3" stroke-width="2" points="360.29,-251.86 351.76,-254.75 360.23,-257.81 360.29,-251.86"/>
<polygon fill="#a3a3a3" stroke="#a3a3a3" stroke-width="2" points="584.65,-260.11 593.18,-257.22 584.71,-254.16 584.65,-260.11"/>
</g>
<!-- prod_api&#45;&gt;mainnet -->
<g id="edge8" class="edge">
<title>prod_api&#45;&gt;mainnet</title>
<path fill="none" stroke="#a3a3a3" stroke-width="2" d="M348.73,-270.09C410.07,-284.25 500.1,-305.03 569.09,-320.95"/>
<polygon fill="#a3a3a3" stroke="#a3a3a3" stroke-width="2" points="568.07,-323.77 577.02,-322.78 569.41,-317.97 568.07,-323.77"/>
<text xml:space="preserve" text-anchor="middle" x="457.49" y="-314.27" font-family="Helvetica,sans-Serif" font-size="9.00" fill="#737373">admin&#45;signed</text>
</g>
</g>
</svg>
